# xmcd
#
# Track frame offsets: 
#        150
#        16636
#        31635
#        45884
#        60858
#        78449
#        94744
#        111976
#        127866
#        150703
#        167712
#        185739
#        204322
#
# Disc length: 2944 seconds
#
# Revision: 0
# Processed by: cddbd v1.5.2PL0 Copyright (c) Steve Scherf et al.
# Submitted via: ExactAudioCopy v0.95a4
#
DISCID=8d0b7e0d
DTITLE=Steve Azar and The Kings Men - Down At The Liquor Store
DYEAR=2017
DGENRE=Blues
TTITLE0=Rena Lara
TTITLE1=Start To Wanderin' My Way
TTITLE2=Tender And Tough
TTITLE3=Wake Me From The Dead
TTITLE4=Down At The Liquor Store
TTITLE5=She Just Rolls With Me
TTITLE6=I Don't Mind (Most Of The Time)
TTITLE7=Chance I'll Take
TTITLE8=Over It All
TTITLE9=Road Isn't There Anymore
TTITLE10=These Crossroads
TTITLE11=Ode To Sonny Boy
TTITLE12=Greenville
EXTD=
EXTT0=
EXTT1=
EXTT2=
EXTT3=
EXTT4=
EXTT5=
EXTT6=
EXTT7=
EXTT8=
EXTT9=
EXTT10=
EXTT11=
EXTT12=
PLAYORDER=
